<svg width="507" height="216" viewBox="0 0 507 216" fill="none" xmlns="http://www.w3.org/2000/svg">
<path d="M31.6519 147.639C28.9001 146.811 26.5879 145.286 24.7152 143.062C22.8426 140.839 21.5664 138.608 20.8868 136.369C20.6874 134.364 20.8739 132.74 21.4464 131.499C21.9192 130.195 22.61 129.098 23.5186 128.208C24.4088 127.237 25.3858 126.459 26.4496 125.876C27.4949 125.211 28.5181 124.636 29.5191 124.153L31.4859 124.347C31.9846 124.66 32.474 124.934 32.9542 125.167C33.5156 125.381 34.0364 125.604 34.5166 125.837C35.2553 125.327 35.6321 124.729 35.6469 124.042C35.7429 123.336 35.839 122.631 35.935 121.925C35.9756 120.976 36.0569 120.018 36.1788 119.05C36.3007 118.082 36.5039 117.096 36.7883 116.091C36.5408 115.378 36.4337 114.719 36.467 114.113C36.5002 113.507 36.5519 112.983 36.6221 112.54C36.0422 112.244 35.6304 112.124 35.3866 112.18C35.2056 112.135 34.8529 112.087 34.3284 112.036C34.0846 112.091 33.8408 112.146 33.597 112.202C33.3347 112.176 33.0319 112.159 32.6884 112.152C31.2663 111.535 30.2875 110.988 29.7519 110.512C29.2791 109.936 28.7657 109.369 28.2116 108.811C27.6576 108.253 27.1626 107.767 26.7268 107.354C26.2909 106.94 25.8237 106.576 25.325 106.262L23.6407 105.619L24.0397 103.991C24.1653 103.791 24.2003 103.569 24.1449 103.326C24.0711 103.001 23.807 102.591 23.3527 102.096C22.8688 101.095 22.6527 100.332 22.7044 99.8074L22.6158 98.2893C23.1883 97.0483 23.4968 96.3372 23.5411 96.1563L24.483 94.6603C26.2412 93.748 28.0308 92.7858 29.8518 91.7738C31.6543 90.6804 33.4162 89.5964 35.1375 88.5215C36.8588 87.4467 38.6207 86.3626 40.4232 85.2693C42.2257 84.176 44.0467 83.1639 45.8862 82.2331C46.407 81.5165 47.0238 81.0345 47.7367 80.7871C48.5124 80.4399 49.2161 80.1518 49.8477 79.9228C50.4165 79.7935 50.9355 79.6328 51.4046 79.4407C51.8737 79.2487 52.1932 78.9624 52.3631 78.582C53.6337 77.7805 54.8822 77.0694 56.1085 76.4489C58.3986 75.2448 61.433 73.7433 65.2116 71.9445C68.9903 70.1458 73.3119 68.4799 78.1765 66.9471L80.7085 66.2435C81.2146 66.2139 81.7114 66.1438 82.1989 66.033C82.668 65.8409 83.1464 65.6895 83.634 65.5787C87.8595 64.6183 90.9585 65.2814 92.9309 67.5678C93.8359 67.7894 94.6873 68.1514 95.4851 68.6538C96.2645 69.0749 97.0032 69.5052 97.7013 69.9447C98.2 70.2587 98.6487 70.5413 99.0476 70.7924C99.4281 70.9624 99.7587 71.1009 100.039 71.208L101.236 71.9615C102.573 73.7086 103.17 75.5813 103.026 77.5796C102.76 78.6656 102.361 79.3544 101.829 79.6462C101.297 79.938 100.765 80.2298 100.233 80.5216L98.8425 81.735C97.7677 81.8938 96.9458 82.0378 96.377 82.1671C95.8894 82.2779 95.3206 82.4072 94.6705 82.5549C92.2327 83.109 89.4255 83.9179 86.2489 84.9816C83.1351 85.9456 79.977 87.0906 76.7746 88.4166C73.5537 89.6614 70.4509 91.0502 67.4664 92.583C64.4635 94.0346 61.8852 95.4751 59.7318 96.9046C59.1925 97.5399 58.4409 98.1807 57.4768 98.8271C57.2515 98.9638 56.932 99.25 56.5183 99.6859C56.7473 100.318 56.895 100.968 56.9615 101.636C57.0095 102.223 57.0169 102.82 56.9836 103.426C56.9947 103.851 57.015 104.316 57.0446 104.822C57.1369 105.228 57.1979 105.684 57.2274 106.19C55.9826 108.61 55.7148 111.192 56.424 113.936L56.0915 115.294C55.8403 115.692 55.6667 116.245 55.5707 116.95C55.5374 117.556 55.6759 118.165 55.9862 118.779L56.8062 120.13C58.3945 119.599 59.9421 119.076 61.4492 118.563C63.019 117.949 64.6701 117.318 66.4024 116.668C68.5854 115.744 70.7868 114.902 73.0068 114.141C75.2895 113.281 77.6904 112.564 80.2095 111.992L84.9632 110.911L84.1155 112.258L85.484 112.075L85.1959 114.191C85.8201 114.306 86.2726 114.417 86.5533 114.524C86.8969 114.531 87.209 114.588 87.4897 114.695L88.6199 115.72C89.0817 115.872 89.5397 116.195 89.994 116.69C90.4298 117.104 90.79 117.748 91.0744 118.624L90.9857 119.926L86.9189 128.541L86.4091 129.683L85.1071 129.594C83.5447 129.864 82.1189 130.358 80.8298 131.079C80.2167 131.389 79.5721 131.749 78.8962 132.159C78.2017 132.488 77.4889 132.735 76.7575 132.902C74.8811 133.67 73.3205 134.324 72.0757 134.863C70.8125 135.321 69.5493 135.779 68.286 136.237C66.5721 136.968 64.8989 137.69 63.2663 138.403C61.6964 139.016 60.2448 139.773 58.9114 140.675C58.036 140.959 57.517 141.12 57.3545 141.157C57.1735 141.112 57.0018 141.109 56.8392 141.146C56.0266 141.33 55.2417 141.637 54.4845 142.065C53.7273 142.494 53.0107 142.913 52.3348 143.323C51.9395 143.84 51.7161 144.361 51.6643 144.885C51.5942 145.329 51.5332 145.813 51.4815 146.337C51.4482 146.943 51.3337 147.567 51.138 148.21C51.005 148.753 50.8 149.355 50.5229 150.016L51.1435 152.182C50.449 152.511 50.1111 152.716 50.1295 152.797C50.1295 152.797 50.0889 152.807 50.0077 152.825C50.1554 153.475 50.172 154.112 50.0575 154.737C50.0242 155.342 49.9818 155.907 49.93 156.432C49.8414 156.794 49.7841 157.106 49.7583 157.368C49.7324 157.631 49.7472 157.884 49.8026 158.127C50.9476 159.405 51.5294 161.025 51.5478 162.986C51.5737 164.604 51.2782 166.124 50.6613 167.546C50.026 168.887 49.1727 170.021 48.1015 170.948C46.8383 171.406 45.8539 171.587 45.1484 171.491C44.5242 171.376 43.8593 171.271 43.1538 171.175C42.7106 171.105 42.2766 171.075 41.8518 171.087C41.4086 171.016 40.9746 170.987 40.5498 170.998L38.8101 170.111C38.4555 169.679 38.0695 169.297 37.6521 168.964C37.2163 168.551 36.7804 168.137 36.3446 167.723C35.809 167.247 35.2734 166.77 34.7378 166.294C34.2022 165.817 33.6888 165.25 33.1976 164.593C31.9824 161.878 31.3249 159.549 31.2252 157.606C31.1883 155.564 31.2825 153.534 31.5078 151.517C31.5226 150.83 31.5466 150.184 31.5799 149.578C31.6131 148.972 31.6372 148.326 31.6519 147.639Z" fill="black"/>
<path d="M171.764 76.4402C172.166 78.2366 172.66 79.7689 173.246 81.0371C173.831 82.3054 174.453 83.5269 175.11 84.7017C175.674 85.8047 176.197 86.913 176.679 88.0268C177.232 89.0471 177.694 90.3315 178.064 91.88C177.683 94.1147 177.446 96.1626 177.352 98.0236C177.342 99.8739 177.3 101.812 177.229 103.839C176.284 106.903 175.337 109.632 174.389 112.025C173.44 114.417 172.702 116.489 172.174 118.238C171.815 118.705 171.507 119.25 171.252 119.871C171.069 120.399 170.85 120.974 170.595 121.596C170.462 121.865 170.304 122.264 170.121 122.792C169.937 123.32 169.774 123.678 169.63 123.865L167.038 123.32L166.946 126.484L165.276 127.206L164.23 128.855C163.016 131.787 161.665 134.316 160.178 136.443C158.68 138.487 156.912 140.399 154.875 142.177C152.91 143.862 150.603 145.508 147.955 147.114C145.39 148.709 142.469 150.477 139.193 152.417C137.766 152.435 136.516 152.514 135.442 152.654C134.44 152.701 133.479 152.742 132.559 152.778C130.989 152.983 129.031 153.112 126.685 153.166C126.351 152.537 125.919 152.131 125.391 151.948C124.863 151.765 124.392 151.7 123.979 151.754C122.488 151.276 121.29 150.466 120.385 149.324C119.551 148.088 118.707 146.769 117.852 145.368C117.32 144.513 116.799 143.741 116.289 143.051C115.768 142.278 115.206 141.511 114.602 140.75L116.628 139.855L113.513 137.236C113.316 137.01 113.082 136.83 112.813 136.697C112.533 136.481 112.294 136.26 112.096 136.034L111.713 134.067C110.722 128.398 109.919 123.208 109.304 118.498C108.762 113.694 108.868 109.353 109.622 105.472L109.444 104.109C109.455 102.259 109.509 100.739 109.606 99.5497C109.692 98.2779 109.748 97.0941 109.773 95.9983C109.783 94.148 109.934 92.4055 110.225 90.7708C111.35 90.372 112.158 89.8043 112.65 89.0678C113.132 88.2487 113.541 87.5229 113.879 86.8906C115.025 86.657 115.832 86.7199 116.299 87.0792C116.766 87.4384 117.265 88.0456 117.797 88.9007C118.307 89.5905 118.911 90.3521 119.608 91.1857C120.387 92.0084 121.429 92.5868 122.734 92.9209C122.985 93.5604 123.283 94.2358 123.628 94.9472C124.045 95.5652 124.472 96.2657 124.911 97.049C125.755 98.3675 126.528 99.7794 127.228 101.285C128.001 102.697 128.52 104.1 128.786 105.494C128.164 107.171 127.74 109.076 127.514 111.206C127.37 113.326 127.356 115.471 127.471 117.641C127.658 119.717 127.963 121.737 128.387 123.698C128.883 125.566 129.465 127.129 130.133 128.387L131.087 129.901L133.162 129.378C135.555 128.394 137.694 127.4 139.58 126.398C141.538 125.302 143.315 124.104 144.91 122.803C146.505 121.503 147.996 120.048 149.383 118.438C150.759 116.746 152.191 114.836 153.678 112.709C155.166 110.582 156.373 108.24 157.3 105.682C158.298 103.03 159.038 100.329 159.52 97.5766C160.084 94.8137 160.405 92.1246 160.484 89.509C160.635 86.8001 160.642 84.278 160.506 81.9427C161.846 81.2636 162.419 80.1804 162.225 78.693L161.799 77.3619C161.404 76.9092 161.328 76.3308 161.573 75.6266C161.864 73.9919 162.864 72.6428 164.574 71.5793C166.004 72.2332 167.28 72.9913 168.401 73.8535C169.604 74.705 170.725 75.5672 171.764 76.4402Z" fill="black"/>
<path d="M199.717 150.938C199.294 150.787 198.83 150.638 198.324 150.491L196.722 147.799L194.78 149.373C194.184 149.062 193.713 148.747 193.368 148.426C193.025 148.189 192.638 147.87 192.206 147.469C191.265 146.838 190.448 146.201 189.757 145.56C189.063 144.836 188.661 144.142 188.553 143.479L188.381 142.235L187.122 142.032C186.662 140.882 186.297 140.062 186.029 139.572C185.757 138.998 185.323 138.556 184.728 138.245C184.071 134.1 184.107 130.638 184.836 127.858C185.562 124.996 186.698 121.951 188.244 118.723C189.23 118.352 190.087 117.861 190.815 117.25C191.626 116.636 192.353 116.025 192.997 115.417C193.641 114.808 194.289 114.284 194.939 113.842C195.586 113.317 196.2 113.002 196.78 112.897L197.88 112.23C199.233 110.511 200.885 108.989 202.837 107.665C204.785 106.257 206.817 104.846 208.931 103.432C210.642 102.367 212.352 101.26 214.06 100.111C215.848 98.876 217.424 97.5656 218.79 96.1798C219.459 96.2379 220.037 96.091 220.524 95.739C220.842 95.3101 220.988 94.7625 220.963 94.0963C221.123 93.9235 221.285 93.7923 221.448 93.7027C221.692 93.5267 221.894 93.3523 222.054 93.1795C222.621 92.7411 223.393 92.2116 224.371 91.591C225.348 90.9703 225.986 90.1957 226.284 89.2671L228.933 86.5402L225.191 86.8066C223.279 86.9622 221.243 87.1641 219.084 87.4124C217.009 87.6576 215.225 87.8917 213.732 88.1148C212.489 88.3286 211.203 88.5022 209.874 88.6358C208.541 88.6861 207.086 88.7827 205.507 88.9257C202.862 87.3577 200.896 84.9719 199.607 81.7682C198.399 78.4781 198.235 75.232 199.115 72.0299C199.694 71.9246 200.189 71.7808 200.599 71.5985C201.006 71.333 201.415 71.1091 201.825 70.9268C202.571 70.8153 203.071 70.7964 203.324 70.8702C203.577 70.9441 203.912 70.9731 204.328 70.9574C206.644 70.453 208.55 70.1309 210.046 69.991C211.621 69.7647 213.076 69.6264 214.408 69.5761C215.824 69.5227 217.201 69.5541 218.539 69.6703C219.875 69.7033 221.175 69.9044 222.44 70.2736C225.355 70.1636 228.306 69.9271 231.295 69.5641C234.283 69.2011 237.372 69.2929 240.562 69.8396C242.782 69.0053 244.981 68.7138 247.158 68.9651C249.419 69.2134 251.414 70.1388 253.142 71.7414C253.279 73.1539 253.653 74.2239 254.264 74.9513C254.956 75.5924 255.807 76.0606 256.819 76.3559C257.576 78.7457 257.698 80.8676 257.184 82.7217C256.754 84.5726 255.941 86.2294 254.745 87.6922C253.55 89.1551 252.099 90.5024 250.395 91.7343C248.77 92.8797 247.144 93.9835 245.516 95.0457C245.045 95.814 244.444 96.4621 243.713 96.9901C243.063 97.4316 242.459 97.9965 241.901 98.6846C239.285 102.286 236.237 105.487 232.756 108.286C229.356 111 225.828 113.635 222.172 116.191C219.573 118.041 216.976 119.932 214.381 121.864C211.865 123.711 209.439 125.72 207.103 127.893L205.896 129.065L207.068 130.271C208.105 131.233 209.289 131.688 210.622 131.638C211.371 131.61 212.076 131.5 212.736 131.308C213.476 131.03 214.174 130.754 214.831 130.479C215.491 130.287 216.067 130.098 216.561 129.913C217.051 129.644 217.504 129.502 217.921 129.486L219.545 129.425C220.195 128.983 220.849 128.625 221.505 128.35C222.162 128.075 222.821 127.842 223.48 127.65C224.14 127.459 224.759 127.268 225.335 127.08C225.912 126.891 226.525 126.576 227.176 126.135C229.008 126.066 230.706 125.751 232.269 125.192C233.916 124.629 235.559 123.984 237.199 123.255C238.183 122.8 239.126 122.39 240.03 122.022C241.017 121.651 242.006 121.363 242.999 121.159C243.348 121.563 243.737 121.924 244.166 122.241C244.675 122.472 245.143 122.704 245.568 122.939C246.676 123.564 247.283 124.166 247.388 124.746L247.895 128.23L250.178 125.767C251.209 126.562 251.787 127.499 251.911 128.578C252.032 129.574 251.957 130.912 251.687 132.59C249.123 135.355 245.87 137.563 241.93 139.212C237.989 140.862 233.797 142.48 229.354 144.065C228.447 144.35 227.499 144.636 226.509 144.923C225.603 145.208 224.698 145.534 223.794 145.901L223.839 143.773L221.157 145.626C220.833 145.888 220.551 146.149 220.311 146.408C220.154 146.664 219.997 146.92 219.839 147.176C217.696 147.841 215.922 148.325 214.515 148.628C213.109 148.932 211.786 149.232 210.547 149.529C209.144 149.915 207.821 150.215 206.578 150.429C205.338 150.726 204.01 150.901 202.595 150.955C202.178 150.97 201.72 150.988 201.221 151.007C200.721 151.025 200.22 151.003 199.717 150.938Z" fill="black"/>
<path d="M274.093 149.493C273.686 149.305 273.237 149.115 272.746 148.923L271.391 146.099L269.316 147.493C268.75 147.13 268.31 146.773 267.994 146.423C267.674 146.156 267.317 145.804 266.923 145.366C266.042 144.653 265.286 143.946 264.655 143.246C264.028 142.462 263.69 141.735 263.641 141.065L263.581 139.81L262.346 139.496C261.99 138.309 261.701 137.46 261.477 136.947C261.258 136.352 260.865 135.872 260.3 135.509C260.017 131.322 260.363 127.877 261.337 125.174C262.317 122.388 263.721 119.457 265.549 116.381C266.565 116.1 267.463 115.687 268.242 115.144C269.104 114.604 269.884 114.061 270.58 113.513C271.276 112.965 271.967 112.5 272.655 112.119C273.347 111.654 273.986 111.395 274.573 111.342L275.729 110.776C277.23 109.185 279.011 107.817 281.074 106.673C283.14 105.445 285.29 104.222 287.523 103.002C289.322 102.094 291.124 101.145 292.928 100.154C294.819 99.0839 296.507 97.9198 297.991 96.6618C298.652 96.7796 299.241 96.685 299.758 96.378C300.112 95.9792 300.307 95.4469 300.341 94.7811C300.516 94.6233 300.689 94.5072 300.86 94.4326C301.118 94.2791 301.335 94.1235 301.51 93.9657C302.114 93.5798 302.931 93.1215 303.96 92.5909C304.989 92.0602 305.693 91.3458 306.074 90.4476L308.956 87.9688L305.205 87.8991C303.286 87.8829 301.241 87.9019 299.069 87.956C296.979 88.0143 295.181 88.0879 293.675 88.1765C292.418 88.2781 291.121 88.336 289.786 88.35C288.454 88.2809 286.996 88.2469 285.41 88.248C282.917 86.4496 281.172 83.8973 280.175 80.5912C279.266 77.2061 279.393 73.9583 280.556 70.8478C281.143 70.7948 281.649 70.6959 282.073 70.5511C282.502 70.323 282.929 70.1366 283.354 69.9918C284.107 69.9474 284.607 69.9734 284.852 70.0696C285.097 70.1658 285.428 70.2246 285.844 70.2463C288.196 69.9512 290.123 69.8009 291.625 69.7955C293.215 69.7112 294.676 69.7036 296.007 69.7727C297.422 69.8462 298.791 70.0007 300.114 70.2363C301.441 70.3887 302.718 70.7053 303.945 71.1863C306.858 71.3376 309.818 71.3662 312.827 71.2721C315.836 71.178 318.905 71.546 322.032 72.376C324.318 71.7437 326.534 71.6502 328.681 72.0954C330.911 72.545 332.814 73.6452 334.392 75.3961C334.402 76.8152 334.679 77.9143 335.223 78.6936C335.854 79.3939 336.66 79.9365 337.641 80.3212C338.182 82.7692 338.113 84.8935 337.436 86.6941C336.841 88.499 335.883 90.0765 334.561 91.4264C333.24 92.7763 331.675 93.9885 329.866 95.0628C328.146 96.0582 326.427 97.0121 324.711 97.9243C324.173 98.6473 323.516 99.2391 322.741 99.6995C322.054 100.081 321.402 100.59 320.785 101.225C317.857 104.578 314.534 107.493 310.818 109.97C307.188 112.368 303.439 114.677 299.568 116.896C296.814 118.505 294.058 120.156 291.3 121.849C288.63 123.462 286.034 125.247 283.512 127.202L282.205 128.261L283.264 129.567C284.211 130.618 285.35 131.178 286.682 131.247C287.431 131.286 288.142 131.239 288.817 131.107C289.579 130.897 290.299 130.684 290.978 130.469C291.652 130.337 292.243 130.2 292.751 130.06C293.264 129.836 293.728 129.735 294.144 129.757L295.767 129.841C296.454 129.46 297.137 129.161 297.816 128.946C298.495 128.731 299.171 128.558 299.846 128.426C300.52 128.294 301.153 128.16 301.744 128.024C302.335 127.887 302.975 127.629 303.662 127.247C305.493 127.342 307.212 127.181 308.819 126.764C310.509 126.351 312.204 125.855 313.903 125.276C314.923 124.911 315.9 124.587 316.832 124.301C317.848 124.02 318.86 123.822 319.867 123.708C320.179 124.141 320.534 124.535 320.932 124.89C321.419 125.165 321.864 125.439 322.267 125.71C323.314 126.432 323.864 127.086 323.917 127.673L324.11 131.188L326.605 128.939C327.56 129.823 328.052 130.808 328.079 131.895C328.11 132.898 327.916 134.223 327.497 135.87C324.695 138.395 321.259 140.302 317.186 141.593C313.114 142.883 308.794 144.119 304.226 145.301C303.298 145.503 302.328 145.703 301.316 145.901C300.388 146.103 299.457 146.346 298.525 146.632L298.76 144.516L295.923 146.121C295.577 146.353 295.273 146.588 295.01 146.825C294.831 147.066 294.651 147.307 294.472 147.548C292.278 148.018 290.467 148.341 289.039 148.517C287.611 148.693 286.267 148.874 285.006 149.059C283.574 149.318 282.229 149.499 280.972 149.6C279.711 149.785 278.373 149.841 276.958 149.767C276.542 149.746 276.084 149.722 275.585 149.696C275.086 149.67 274.588 149.603 274.093 149.493Z" fill="black"/>
<path d="M414.479 88.0456C414.481 88.6349 414.417 89.0888 414.288 89.4073C414.254 89.6549 414.178 89.8967 414.061 90.1327C414.026 90.3803 413.985 90.6692 413.939 90.9993C413.905 91.2469 413.929 91.6711 414.013 92.2719C411.887 94.8351 409.594 96.4913 407.133 97.2405C404.766 97.9188 402.227 98.3206 399.517 98.4459C396.818 98.4886 394.031 98.5611 391.156 98.6633C388.363 98.777 385.489 99.4684 382.535 100.738C381.52 100.175 380.53 100.036 379.564 100.321C378.681 100.619 377.426 100.569 375.798 100.173C375.234 100.599 374.563 100.883 373.785 101.027C373.019 101.088 372.248 101.19 371.47 101.334C371.696 102.123 371.71 102.924 371.512 103.738C371.408 104.48 371.445 105.117 371.624 105.647C374.477 106.299 377.66 106.702 381.173 106.858C384.768 107.025 388.263 107.304 391.658 107.695C391.683 108.119 391.601 108.402 391.413 108.544C391.236 108.604 391.166 108.804 391.202 109.146C391.722 109.64 392.225 110.257 392.71 110.998C393.207 111.657 393.704 112.315 394.2 112.974C394.697 113.632 395.206 114.209 395.725 114.702C396.339 115.125 397.065 115.353 397.902 115.386C398.139 116.092 398.242 116.864 398.209 117.701C398.27 118.466 398.077 119.239 397.632 120.018C396.184 120.741 394.731 121.505 393.272 122.31C391.824 123.033 390.305 123.662 388.716 124.197C387.209 124.743 385.595 125.148 383.875 125.412C382.25 125.605 380.452 125.522 378.483 125.162C378.07 125.104 377.74 125.058 377.493 125.023C377.328 125 377.097 124.841 376.802 124.548C376.084 124.868 375.118 124.859 373.903 124.52C372.77 124.193 371.845 124.19 371.127 124.51C370.277 123.97 369.186 123.649 367.854 123.547C366.616 123.373 365.525 123.052 364.581 122.584C363.018 124.132 361.561 125.821 360.211 127.651C358.861 129.482 357.617 131.453 356.48 133.566C359.228 134.372 361.516 134.86 363.343 135.032C365.252 135.215 367.044 135.34 368.718 135.406C370.403 135.39 372.124 135.42 373.88 135.498C375.648 135.493 377.846 135.717 380.476 136.169C382.253 135.493 384.274 135.187 386.536 135.251C388.893 135.245 391.067 135.044 393.058 134.65C393.683 134.99 394.198 135.525 394.6 136.254C395.015 136.901 395.388 137.543 395.719 138.178C396.145 138.743 396.577 139.266 397.014 139.748C397.451 140.23 398.047 140.482 398.802 140.503C399.085 140.88 399.234 141.321 399.247 141.828C399.354 142.264 399.42 142.694 399.445 143.118C399.47 143.542 399.542 143.931 399.66 144.284C399.873 144.566 400.233 144.701 400.74 144.687C399.121 147.238 397.382 149.14 395.523 150.394C393.758 151.577 391.793 152.396 389.625 152.85C387.458 153.304 385.066 153.558 382.45 153.612C379.917 153.678 377.083 153.786 373.948 153.936C373.182 153.997 372.569 153.869 372.109 153.552C371.637 153.318 371.07 153.154 370.41 153.062C368.454 153.208 366.133 153.262 363.446 153.222C360.759 153.182 358.059 152.931 355.347 152.467C352.635 152.003 350.088 151.267 347.704 150.26C345.309 149.336 343.438 147.98 342.089 146.192C341.51 145.522 341.149 144.798 341.005 144.021C340.956 143.172 340.506 142.478 339.656 141.938C339.724 140.854 339.726 139.634 339.663 138.279C339.601 136.924 339.544 135.528 339.493 134.09C339.453 132.57 339.449 131.097 339.481 129.671C339.595 128.256 339.856 126.988 340.266 125.868C340.687 124.664 341.338 123.62 342.219 122.733C343.183 121.859 343.622 120.826 343.537 119.636C343.961 119.611 344.237 119.44 344.366 119.121C344.506 118.72 344.86 118.601 345.426 118.765C346.129 117.349 346.862 116.021 347.625 114.781C348.387 113.542 349.144 112.343 349.895 111.186C350.729 110.041 351.521 108.89 352.272 107.733C353.117 106.505 353.939 105.147 354.736 103.66C353.731 102.425 353.026 101.149 352.622 99.8298C352.311 98.44 352.119 97.1088 352.045 95.8362C351.982 94.4811 351.961 93.1317 351.981 91.7882C352.012 90.3621 351.92 88.9186 351.704 87.4579C352.702 86.3355 353.832 85.4839 355.091 84.903C356.444 84.2511 357.857 83.7758 359.33 83.4771C360.802 83.1784 362.387 82.9796 364.083 82.8807C365.78 82.7818 367.565 82.6531 369.439 82.4948C372.89 81.8842 375.935 81.4693 378.575 81.2499C381.296 81.0421 383.918 80.9465 386.44 80.9631C389.057 80.9088 391.749 80.9073 394.519 80.9586C397.289 81.0099 400.453 80.9482 404.012 80.7735C404.65 81.6202 405.3 82.0899 405.96 82.1823C406.394 81.4858 406.794 81.3315 407.161 81.7194C407.621 82.0363 407.862 81.8177 407.884 81.0634C408.513 82.5819 409.377 83.923 410.476 85.0868C411.669 86.1795 413.004 87.1658 414.479 88.0456Z" fill="black"/>
<path d="M428.373 149.84C426.733 152.884 425.351 155.174 424.229 156.712C423.206 158.187 421.799 159.659 420.007 161.129C418.989 160.724 418.23 160.678 417.731 160.991C417.231 161.303 416.701 161.566 416.139 161.779C415.37 161.774 414.842 161.652 414.555 161.415C414.267 161.178 414.03 160.91 413.842 160.61C413.636 160.392 413.358 160.114 413.007 159.777C412.72 159.54 412.211 159.338 411.48 159.17C411.466 158.483 411.403 157.827 411.29 157.202C411.259 156.596 410.777 156.272 409.847 156.229C410.158 155.617 410.32 155.098 410.332 154.674C410.363 154.168 410.334 153.734 410.247 153.371C410.259 152.947 410.261 152.562 410.255 152.219C410.267 151.794 410.42 151.316 410.713 150.785C410.306 150.692 410.047 150.333 409.934 149.708C409.821 149.084 409.667 148.45 409.473 147.807C410.052 146.401 410.613 145.076 411.156 143.833C411.698 142.589 412.262 141.436 412.848 140.374C413.515 139.33 414.101 138.268 414.606 137.187C415.111 136.105 415.26 134.9 415.052 133.57C415.321 133.888 415.574 133.903 415.811 133.616C416.067 133.247 416.301 132.788 416.513 132.238C416.743 131.607 416.924 131.007 417.054 130.438C417.204 129.789 417.284 129.251 417.296 128.827C418.594 126.902 419.738 124.899 420.729 122.818C421.82 120.674 422.82 118.553 423.73 116.453C424.721 114.372 425.703 112.332 426.676 110.332C427.648 108.332 428.746 106.533 429.968 104.932C430.899 104.975 431.846 105.321 432.808 105.97C433.871 106.556 434.458 107.161 434.571 107.785C437.056 106.646 439.372 105.126 441.519 103.225C443.684 101.243 445.872 99.3516 448.081 97.5506C450.291 95.7495 452.606 94.2295 455.029 92.9904C457.532 91.77 460.405 91.3612 463.647 91.764C464.992 93.3555 466.489 95.0248 468.14 96.7721C469.89 98.4569 471.182 100.464 472.015 102.793C472.59 103.267 473.034 103.754 473.347 104.253C473.76 104.69 474.244 105.186 474.801 105.741L474.465 107.203C475.234 108.321 475.763 109.554 476.052 110.902C476.44 112.189 476.72 113.578 476.89 115.071C477.078 116.482 477.258 117.934 477.428 119.427C477.617 120.839 477.896 122.228 478.266 123.596C478.01 123.964 477.845 124.311 477.77 124.636C477.714 124.88 477.69 125.173 477.696 125.517C477.784 125.879 477.831 126.232 477.838 126.575C477.844 126.919 477.742 127.366 477.53 127.915C476.465 131.433 474.625 134.046 472.01 135.753C469.475 137.48 466.578 138.738 463.319 139.528C460.078 140.237 456.68 140.697 453.126 140.906C449.573 141.116 446.325 141.481 443.384 142.002C443.309 142.327 443.393 142.518 443.637 142.574C443.962 142.648 444.037 142.879 443.863 143.267C445.532 144.933 446.851 146.262 447.82 147.254C448.789 148.246 449.705 149.098 450.568 149.809C451.512 150.539 452.506 151.238 453.549 151.905C454.693 152.51 456.265 153.298 458.264 154.271C460.264 155.243 461.795 156.023 462.858 156.609C464.02 157.132 465.06 157.628 465.979 158.095C466.916 158.482 467.854 158.868 468.791 159.254C469.828 159.578 471.262 160.036 473.093 160.627C473.656 161.526 474.059 162.56 474.304 163.727C474.649 164.833 474.781 165.932 474.701 167.025C474.639 168.037 474.456 169.021 474.151 169.977C473.865 170.852 473.412 171.517 472.794 171.974C472.82 172.236 472.954 172.395 473.198 172.451C473.541 172.445 473.866 172.519 474.172 172.675C473.61 172.888 473.111 173.201 472.674 173.614C472.237 174.026 471.801 174.439 471.364 174.852C470.927 175.264 470.468 175.586 469.987 175.818C469.488 176.131 468.864 176.244 468.114 176.157C465.372 176.553 462.195 175.866 458.584 174.096C454.953 172.407 450.475 169.753 445.15 166.136C442.487 164.327 440.315 162.802 438.634 161.56C437.052 160.257 435.664 159.04 434.47 157.911C433.376 156.719 432.372 155.505 431.459 154.269C430.627 153.052 429.598 151.575 428.373 149.84ZM455.394 112.056C454.202 113.15 452.916 114.095 451.537 114.89C450.238 115.703 448.93 116.557 447.613 117.451C446.396 118.283 445.223 119.296 444.093 120.49C442.983 121.603 442.06 123.016 441.324 124.728C444.242 125.056 447.383 124.965 450.749 124.456C454.134 123.866 457.338 123.319 460.361 122.817C460.614 120.224 460.187 117.989 459.08 116.11C458.054 114.249 456.825 112.898 455.394 112.056Z" fill="black"/>
</svg>
